<svg width="36" height="26" viewBox="0 0 36 26" fill="none" xmlns="http://www.w3.org/2000/svg">
<path d="M35.2241 3.98434C34.3367 2.45575 31.9897 1.02278 25.9203 2.61888C23.8946 1.221 21.5251 0.403891 19.0683 0.256008C16.6115 0.108125 14.1611 0.635105 11.9823 1.77989C9.80354 2.92468 7.97943 4.64366 6.70746 6.75073C5.4355 8.85779 4.76415 11.2727 4.7661 13.7339C4.7661 14.0714 4.77828 14.4061 4.80266 14.7379C0.344847 19.1986 0.420785 21.9464 1.31235 23.4834C2.15047 24.929 3.82391 25.5464 5.98672 25.5464C7.36344 25.5464 8.93985 25.2961 10.6203 24.8559C12.6465 26.2518 15.0158 27.0671 17.4719 27.2134C19.928 27.3598 22.3773 26.8318 24.5549 25.6864C26.7326 24.5411 28.5555 22.822 29.8265 20.7153C31.0976 18.6085 31.7683 16.1943 31.7661 13.7339C31.7661 13.395 31.7534 13.0603 31.7281 12.727C33.7405 10.7048 35.0834 8.75997 35.525 7.102C35.9216 5.63669 35.5798 4.59325 35.2241 3.98434ZM18.2661 3.60888C20.5594 3.61197 22.784 4.39234 24.5766 5.82259C26.3693 7.25285 27.6242 9.24852 28.1366 11.4839C26.1411 13.274 23.4692 15.2231 20.2236 17.0892C17.1664 18.8456 14.0994 20.2336 11.3516 21.1181C9.87183 19.7299 8.84329 17.9292 8.39933 15.9494C7.95536 13.9696 8.11645 11.9021 8.86169 10.0149C9.60694 8.12777 10.902 6.50806 12.5789 5.36581C14.2557 4.22356 16.2371 3.61145 18.2661 3.60888ZM4.23032 21.7903C4.14454 21.6398 4.20641 20.6343 5.73079 18.7373C6.20426 19.9193 6.84297 21.0281 7.62782 22.0308C5.20485 22.3978 4.32313 21.9478 4.23032 21.7903ZM18.2661 23.8589C17.188 23.8591 16.1169 23.6862 15.0936 23.347C17.4367 22.3932 19.7117 21.2802 21.9027 20.0156C24.0854 18.7708 26.1796 17.3767 28.1703 15.8433C27.6843 18.1101 26.4362 20.142 24.6341 21.6005C22.8319 23.059 20.5845 23.8561 18.2661 23.8589ZM32.2681 6.23153C32.0881 6.90372 31.5917 7.76013 30.807 8.73466C30.3335 7.55111 29.6943 6.4408 28.9086 5.437C31.1347 5.10372 32.1669 5.437 32.3047 5.67747C32.3286 5.71825 32.3581 5.89825 32.2681 6.23153Z" fill="#FFFFFF"/>
</svg>
